<svg xmlns="http://www.w3.org/2000/svg" xmlns:xlink="http://www.w3.org/1999/xlink" width="500" zoomAndPan="magnify" viewBox="0 0 375 374.999991" height="500" preserveAspectRatio="xMidYMid meet" version="1.0"><defs><clipPath id="id1"><path d="M 44.296875 158 L 330.796875 158 L 330.796875 375 L 44.296875 375 Z M 44.296875 158 " clip-rule="nonzero"/></clipPath></defs><g clip-path="url(#id1)"><path fill="#f68712" d="M 310.320312 158.378906 C 317.59375 174.890625 321.640625 193.144531 321.640625 212.34375 C 321.640625 286.378906 261.605469 346.394531 187.546875 346.394531 C 113.488281 346.394531 53.449219 286.378906 53.449219 212.34375 C 53.449219 193.144531 57.5 174.890625 64.773438 158.378906 C 51.847656 179.882812 44.410156 205.050781 44.410156 231.964844 C 44.410156 310.992188 108.496094 375.050781 187.546875 375.050781 C 266.597656 375.050781 330.683594 310.992188 330.683594 231.964844 C 330.683594 205.050781 323.246094 179.882812 310.320312 158.378906 " fill-opacity="1" fill-rule="nonzero"/></g><path fill="#eb6a18" d="M 157.113281 311.515625 C 154.480469 317.816406 158.269531 324.941406 164.964844 326.300781 C 179.484375 329.25 194.367188 329.285156 208.902344 326.417969 C 215.601562 325.09375 219.429688 317.984375 216.832031 311.671875 L 197.09375 263.6875 C 193.429688 254.773438 180.808594 254.738281 177.097656 263.636719 L 157.113281 311.515625 " fill-opacity="1" fill-rule="nonzero"/><path fill="#eb6a18" d="M 214.066406 256.710938 L 233.804688 304.699219 C 236.398438 311.011719 244.121094 313.371094 249.8125 309.601562 C 262.164062 301.421875 272.71875 290.929688 280.964844 278.625 C 284.761719 272.953125 282.445312 265.222656 276.144531 262.59375 L 228.246094 242.613281 C 219.34375 238.902344 210.402344 247.796875 214.066406 256.710938 " fill-opacity="1" fill-rule="nonzero"/><path fill="#eb6a18" d="M 91.089844 187.132812 C 84.75 184.605469 77.679688 188.511719 76.429688 195.21875 C 73.714844 209.777344 73.914062 224.660156 77.019531 239.140625 C 78.449219 245.8125 85.617188 249.527344 91.890625 246.832031 L 139.570312 226.335938 C 148.429688 222.527344 148.257812 209.914062 139.300781 206.34375 L 91.089844 187.132812 " fill-opacity="1" fill-rule="nonzero"/><path fill="#eb6a18" d="M 93.152344 278.128906 C 101.335938 290.476562 111.832031 301.027344 124.140625 309.273438 C 129.8125 313.070312 137.546875 310.753906 140.175781 304.453125 L 160.164062 256.570312 C 163.878906 247.675781 154.980469 238.730469 146.058594 242.398438 L 98.058594 262.125 C 91.746094 264.722656 89.382812 272.4375 93.152344 278.128906 " fill-opacity="1" fill-rule="nonzero"/><path fill="#eb6a18" d="M 298.074219 192.25 C 296.644531 185.574219 289.476562 181.863281 283.203125 184.558594 L 235.523438 205.054688 C 226.664062 208.863281 226.835938 221.476562 235.792969 225.046875 L 284.003906 244.257812 C 290.34375 246.78125 297.410156 242.878906 298.664062 236.167969 C 301.378906 221.609375 301.179688 206.730469 298.074219 192.25 " fill-opacity="1" fill-rule="nonzero"/><path fill="#80cc28" d="M 48.589844 0.0351562 C 73.785156 202.878906 188.859375 183.871094 188.859375 183.871094 C 188.859375 183.871094 114.972656 119.757812 101.265625 68.957031 C 101.265625 68.957031 130.914062 120.179688 193.367188 167.121094 C 198.527344 134.195312 191.84375 59.082031 48.589844 0.0351562 " fill-opacity="1" fill-rule="nonzero"/><path fill="#80cc28" d="M 326.503906 75.253906 C 194.058594 91.691406 206.472656 166.777344 206.472656 166.777344 C 206.472656 166.777344 248.332031 118.566406 281.5 109.625 C 281.5 109.625 248.058594 128.96875 217.40625 169.71875 C 238.90625 173.085938 287.945312 168.726562 326.503906 75.253906 " fill-opacity="1" fill-rule="nonzero"/></svg>